<svg width="50" height="50" viewBox="0 0 50 50" fill="none" xmlns="http://www.w3.org/2000/svg">
<rect width="50" height="50" rx="11" fill="#F5FAFF"/>
<path d="M24.793 27.8984V25.9883H17.668V28.5664H21.3477L21.3359 28.8359C21.2656 30.9336 19.6602 32.3516 17.3516 32.3516C14.5391 32.3516 12.7578 30.1133 12.7578 26.4453C12.7578 22.8477 14.4336 20.7266 17.2227 20.7266C19.1328 20.7266 20.5742 21.7812 21.0898 23.5508H24.6406C24.1367 20.1289 21.1602 17.7969 17.2109 17.7969C12.2422 17.7969 9.14844 21.0781 9.14844 26.4922C9.14844 31.9883 12.2422 35.293 17.293 35.293C22.0039 35.293 24.793 32.5039 24.793 27.8984ZM27.1367 18.0898V35H30.6758V29.668H34.0156C37.5781 29.668 40.0508 27.3477 40.0508 23.8789C40.0508 20.3984 37.6602 18.0898 34.1914 18.0898H27.1367ZM30.6758 20.8906H33.2539C35.2812 20.8906 36.4531 21.9688 36.4531 23.8906C36.4531 25.8242 35.2695 26.9023 33.2422 26.9023H30.6758V20.8906Z" fill="#464AB3"/>
</svg>
