<?xml version="1.0" standalone="no"?>
<!DOCTYPE svg PUBLIC "-//W3C//DTD SVG 20010904//EN"
 "http://www.w3.org/TR/2001/REC-SVG-20010904/DTD/svg10.dtd">
<svg version="1.0" xmlns="http://www.w3.org/2000/svg"
 width="360.000000pt" height="360.000000pt" viewBox="0 0 360.000000 360.000000"
 preserveAspectRatio="xMidYMid meet">
<metadata>
Created by potrace 1.14, written by Peter Selinger 2001-2017
</metadata>
<g transform="translate(0.000000,360.000000) scale(0.100000,-0.100000)"
fill="#000000" stroke="none">
<path d="M0 1800 l0 -1800 1800 0 1800 0 0 1800 0 1800 -1800 0 -1800 0 0
-1800z m2062 1544 c484 -81 913 -399 1132 -839 211 -423 223 -920 32 -1348
l-26 -57 -522 0 -522 0 -50 54 c-28 29 -66 59 -85 65 -22 7 -140 11 -341 11
-266 0 -309 2 -320 16 -11 12 -10 18 4 32 15 15 48 17 329 17 360 0 377 -3
446 -81 l39 -44 489 0 490 0 25 58 c54 123 108 352 108 452 0 44 -1 45 -18 24
-39 -49 -115 -58 -183 -23 -63 32 -86 109 -55 184 37 88 178 103 244 25 11
-12 13 -3 8 60 -6 97 -30 210 -68 324 -33 98 -91 230 -105 239 -5 3 -33 -10
-63 -29 -30 -19 -59 -34 -65 -34 -11 0 -40 49 -33 55 2 1 14 8 28 15 14 7 42
24 63 37 l38 24 -53 77 c-68 99 -271 302 -370 370 -42 28 -78 52 -80 52 -1 0
-19 -29 -38 -65 -19 -36 -38 -65 -41 -65 -4 0 -17 8 -29 18 l-23 19 37 65 36
65 -87 41 c-159 73 -343 121 -520 137 l-73 6 0 -75 0 -76 -35 0 -35 0 0 76 0
76 -67 -7 c-209 -19 -362 -58 -530 -136 -46 -21 -83 -43 -83 -49 0 -6 11 -27
23 -48 50 -79 50 -80 17 -97 l-29 -15 -30 52 c-17 29 -34 59 -38 66 -18 29
-262 -168 -365 -295 -32 -39 -58 -73 -58 -77 0 -3 279 -6 620 -6 l620 0 143
-64 c225 -101 257 -117 268 -138 8 -14 7 -25 -3 -39 -7 -11 -98 -59 -203 -107
l-190 -87 -745 -5 -745 -5 -18 -65 c-20 -75 -46 -238 -39 -245 3 -3 38 -5 79
-5 l73 0 0 -30 c0 -28 -2 -30 -40 -30 -33 0 -40 -3 -40 -20 0 -16 7 -20 35
-20 32 0 35 -2 35 -30 0 -28 -3 -30 -34 -30 l-35 0 -3 -52 c-3 -53 -3 -53 -39
-56 l-36 -3 13 -82 c23 -153 61 -280 123 -413 l40 -85 67 37 c64 36 67 36 80
19 23 -31 16 -43 -46 -77 -33 -18 -60 -36 -60 -39 0 -4 18 -34 40 -67 57 -85
177 -220 254 -285 67 -56 189 -147 199 -147 3 0 22 29 42 65 l36 65 29 -17 29
-17 -34 -62 c-19 -34 -35 -65 -35 -69 0 -10 158 -81 245 -109 102 -33 247 -63
353 -72 l82 -7 0 77 0 76 35 0 35 0 0 -76 0 -76 78 6 c187 16 343 59 524 143
l78 36 -36 65 -37 65 24 18 c13 9 27 15 31 13 4 -2 21 -30 39 -62 18 -31 33
-59 35 -61 7 -9 168 114 247 189 73 69 193 208 219 255 4 7 -142 9 -432 7
l-438 -2 -27 -36 c-15 -20 -50 -47 -79 -60 -50 -24 -55 -24 -372 -24 -281 0
-323 2 -335 16 -9 11 -10 20 -2 32 9 15 46 18 339 22 237 4 335 9 351 17 12 7
38 33 59 58 l36 45 514 0 514 0 -47 -72 c-197 -309 -491 -542 -824 -652 -206
-68 -413 -94 -622 -76 -143 12 -227 28 -357 71 -302 98 -571 291 -765 548
-244 323 -358 762 -300 1154 16 103 45 229 64 279 l10 28 718 2 c710 3 718 3
718 23 0 20 -7 20 -695 22 -382 2 -700 5 -707 8 -9 3 -10 12 -2 35 l11 30 688
0 c599 0 689 2 700 15 10 12 10 18 0 30 -11 13 -99 15 -681 15 -368 0 -669 2
-669 5 0 4 7 19 15 35 l16 30 660 0 c580 0 660 2 665 15 4 8 1 22 -6 30 -11
13 -98 15 -647 15 l-635 0 17 28 c250 389 696 660 1160 702 113 10 293 3 407
-16z m-1357 -1418 c39 -17 75 -77 75 -127 0 -45 -29 -98 -64 -120 -41 -25
-121 -25 -162 0 -83 50 -83 192 0 242 37 23 103 25 151 5z m331 -17 c30 -27
54 -77 54 -111 0 -37 -40 -108 -71 -123 -37 -19 -112 -19 -150 0 -89 47 -93
192 -6 246 46 29 136 23 173 -12z m962 17 c92 -47 105 -166 27 -235 -30 -26
-44 -31 -86 -31 -27 0 -63 7 -80 15 -89 47 -93 193 -6 245 38 23 106 26 145 6z
m-688 -23 c36 -33 52 -87 40 -140 -16 -69 -74 -102 -182 -103 l-48 0 0 135 0
135 80 0 c73 0 82 -2 110 -27z m156 -30 c24 -84 26 -84 44 -13 l16 65 45 3 46
3 13 -61 c7 -33 16 -62 19 -65 4 -2 15 25 25 61 l18 64 45 0 c32 0 44 -4 41
-12 -3 -7 -22 -62 -43 -123 -21 -60 -43 -116 -48 -122 -5 -7 -22 -13 -38 -13
-33 0 -44 17 -60 89 -6 28 -14 51 -18 51 -3 0 -12 -26 -20 -57 -16 -71 -25
-83 -63 -83 -33 0 -36 4 -92 169 l-35 101 44 0 44 0 17 -57z m807 46 c30 -16
37 -28 37 -71 0 -27 -6 -42 -24 -56 l-25 -19 34 -50 c19 -28 31 -53 28 -57 -4
-3 -23 -6 -44 -6 -33 0 -42 5 -63 36 l-25 37 -3 -34 c-3 -31 -6 -34 -40 -37
l-38 -3 0 135 0 136 71 0 c39 0 80 -5 92 -11z m159 -35 l3 -47 33 47 c31 43
36 46 78 46 50 0 50 0 -1 -65 -50 -63 -50 -61 -1 -124 25 -33 46 -64 46 -70 0
-16 -76 -13 -93 4 -8 8 -26 31 -39 52 l-23 38 -5 -50 c-5 -50 -5 -50 -40 -50
l-35 0 -3 133 -3 132 40 0 40 0 3 -46z m266 -86 l-3 -133 -40 0 -40 0 -3 133
-3 132 46 0 46 0 -3 -132z m169 65 l43 -68 0 68 0 67 40 0 41 0 -3 -132 -3
-133 -39 0 c-38 0 -41 2 -80 68 l-41 68 -5 -68 -5 -68 -37 -3 -38 -3 0 135 0
136 43 0 c41 0 43 -1 84 -67z m-1103 -709 c12 -12 13 -20 6 -35 -10 -18 -23
-19 -205 -19 -182 0 -195 1 -205 19 -7 15 -6 23 6 35 23 24 375 24 398 0z m4
-126 c16 -16 15 -23 -4 -42 -23 -23 -359 -24 -392 0 -18 12 -20 19 -12 35 10
18 23 19 203 19 137 0 196 -3 205 -12z"/>
<path d="M1840 2470 l0 -149 43 18 c23 10 77 35 120 54 l77 36 0 40 c0 22 -6
43 -12 48 -13 8 -165 77 -205 93 l-23 10 0 -150z"/>
<path d="M3116 1848 c-23 -33 -20 -75 9 -103 29 -30 45 -31 76 -5 l24 19 -37
1 c-35 0 -38 2 -38 30 l0 29 72 3 c71 3 86 11 69 36 -7 12 -14 11 -39 -2 -26
-14 -31 -14 -42 -1 -19 23 -76 19 -94 -7z"/>
<path d="M596 1854 c-23 -23 -29 -59 -15 -86 15 -29 28 -38 56 -38 32 0 53 27
53 69 0 61 -56 94 -94 55z"/>
<path d="M896 1848 c-34 -48 -8 -118 43 -118 37 0 61 28 61 72 0 63 -71 94
-104 46z"/>
<path d="M1886 1848 c-34 -48 -8 -118 43 -118 37 0 61 28 61 72 0 63 -71 94
-104 46z"/>
<path d="M1200 1799 c0 -68 1 -70 23 -64 12 4 28 14 35 23 13 17 16 61 4 78
-7 11 -45 34 -56 34 -3 0 -6 -32 -6 -71z"/>
<path d="M2190 1846 c0 -20 5 -26 21 -26 15 0 20 5 17 22 -5 34 -38 37 -38 4z"/>
</g>
</svg>
