<svg width="13" height="13" viewBox="0 0 13 13" fill="none" xmlns="http://www.w3.org/2000/svg">
<path fill-rule="evenodd" clip-rule="evenodd" d="M1.91507 0.655725C1.56794 0.308593 1.00513 0.308593 0.657995 0.655726C0.310863 1.00286 0.310863 1.56567 0.657996 1.9128L5.0591 6.31391L0.658181 10.7148C0.311048 11.062 0.311048 11.6248 0.658181 11.9719C1.00531 12.319 1.56813 12.319 1.91526 11.9719L6.31618 7.57098L10.7146 11.9694C11.0618 12.3166 11.6246 12.3166 11.9717 11.9694C12.3188 11.6223 12.3188 11.0595 11.9717 10.7124L7.57326 6.31391L11.9719 1.91527C12.319 1.56814 12.319 1.00533 11.9719 0.658194C11.6248 0.31106 11.0619 0.311061 10.7148 0.658194L6.31618 5.05683L1.91507 0.655725Z" fill="#FD8E3E"/>
</svg>
